<svg width="40" height="40" viewBox="0 0 40 40" fill="none" xmlns="http://www.w3.org/2000/svg">
<g clip-path="url(#clip0_12_62)">
<path fill-rule="evenodd" clip-rule="evenodd" d="M20 8.43945C13.6153 8.43945 8.43958 13.6152 8.43958 20C8.43958 26.3847 13.6153 31.5605 20 31.5605C26.3846 31.5605 31.5604 26.3847 31.5604 20C31.5604 13.6152 26.3846 8.43945 20 8.43945ZM20.2913 27.5753C17.7524 27.5753 14.8805 26.8053 14.0481 23.6417L17.3778 22.7468C17.6691 23.8498 18.6889 24.4948 20.2705 24.4948C21.6024 24.4948 22.414 24.0373 22.414 23.1005C22.414 21.7062 20.6659 21.7899 18.8761 21.3524C16.8991 20.8743 14.4435 19.9581 14.4435 16.8782C14.4435 13.9026 16.691 12.4246 19.9584 12.4246C22.9343 12.4246 25.057 13.632 25.8686 16.2332L22.5389 17.1282C22.1851 16.0669 21.3527 15.4839 19.8959 15.4839C18.564 15.4839 18.0021 16.0045 18.0021 16.7744C18.0021 18.0019 19.3964 18.1894 21.4359 18.6056C23.5794 19.0219 25.9518 19.9375 25.9518 23.0799C25.9518 26.0766 23.85 27.5753 20.2913 27.5753Z" fill="#F3F3F3"/>
<path fill-rule="evenodd" clip-rule="evenodd" d="M0.305298 19.9999C0.305298 9.12288 9.12287 0.305298 19.9999 0.305298C30.877 0.305298 39.6946 9.12288 39.6946 19.9999C39.6946 30.877 30.877 39.6946 19.9999 39.6946C9.12287 39.6946 0.305298 30.877 0.305298 19.9999ZM19.8577 5.63588L20.5719 5.58971L20.3796 2.61396L19.6526 2.66095L18.9862 4.04016L18.9734 4.04098L18.1393 2.75877L17.3826 2.80768L17.5749 5.78341L18.2891 5.73726L18.2421 5.01033C18.1965 4.30465 18.1655 3.95661 18.1652 3.95236L18.1779 3.95154C18.1825 3.95551 18.3401 4.21425 18.5059 4.46821L18.8282 4.96391L19.2278 4.93808L19.4831 4.39651C19.6111 4.13211 19.7383 3.85495 19.7423 3.85042L19.7508 3.84987C19.7511 3.85413 19.7651 4.20325 19.8107 4.90893L19.8577 5.63588ZM27.7898 4.45102L25.702 6.83161L24.8544 6.49606L24.9618 3.33146L25.7182 3.63095L25.6254 5.11529C25.5905 5.70159 25.5731 5.94214 25.5724 5.95559L25.5842 5.96029C25.5929 5.94997 25.7449 5.76274 26.1119 5.32161L27.069 4.16564L27.7898 4.45102ZM15.7089 6.29509L15.3678 5.89527L14.2072 6.33077L14.2133 6.85628L13.5073 7.12116L13.5367 3.92521L14.2985 3.63938L16.4269 6.02571L15.7089 6.29509ZM14.1976 5.63824L14.9195 5.36736L14.5121 4.88779C14.3375 4.68939 14.2079 4.53784 14.2024 4.53535L14.1904 4.53984C14.1879 4.54533 14.1885 4.74078 14.1875 5.00503L14.1976 5.63824ZM10.7147 8.97164L12.4949 7.68948L12.1065 7.15024L10.907 8.01414L10.5883 7.57168L11.4594 6.94429L11.1109 6.46035L10.2398 7.08774L9.94103 6.67293L11.1232 5.82149L10.7349 5.28223L8.97192 6.55194L10.7147 8.97164ZM27.7354 7.83326L29.4914 9.1484L29.8897 8.61649L28.7066 7.73037L29.0335 7.29393L29.8926 7.93746L30.2503 7.46011L29.391 6.81658L29.6975 6.40742L30.8636 7.28078L31.2619 6.74887L29.523 5.4465L27.7354 7.83326ZM7.82771 19.9999C7.82771 13.2774 13.2774 7.82772 19.9999 7.82772C26.7225 7.82772 32.1722 13.2774 32.1722 19.9999C32.1722 26.7225 26.7225 32.1721 19.9999 32.1721C13.2774 32.1721 7.82771 26.7225 7.82771 19.9999ZM31.9954 11.9984L31.4667 11.3358L31.8876 10.2858L31.7945 10.1693L31.6882 10.0361L30.9191 10.65L30.4726 10.0907L32.8031 8.23036L33.5102 9.11594C33.9779 9.70189 33.9452 10.2893 33.4626 10.6747C33.143 10.9298 32.7817 10.962 32.4492 10.7641L31.9954 11.9984ZM9.78648 9.82332L9.24082 10.4721L8.12853 10.2658L8.03256 10.3799L7.92288 10.5103L8.67597 11.1437L8.21531 11.6914L5.93322 9.77197L6.6626 8.90477C7.1452 8.33099 7.72755 8.24747 8.20027 8.64506C8.51324 8.90829 8.61583 9.2562 8.48709 9.62106L9.78648 9.82332ZM6.88942 9.64105L7.48603 10.1428L7.78491 9.78749C7.95491 9.58536 7.94708 9.38951 7.75473 9.22773C7.56564 9.0687 7.36379 9.07705 7.18556 9.28896L6.88942 9.64105ZM32.7435 9.19364L32.1343 9.67997L32.4241 10.0429C32.5888 10.2493 32.7823 10.2801 32.9788 10.1233C33.1719 9.96915 33.2034 9.7696 33.0306 9.5532L32.7435 9.19364ZM5.41323 11.8063L4.81081 11.5258L3.73898 13.8274L4.34142 14.1079L4.72626 13.2815L6.82705 14.2598L7.12917 13.611L5.02839 12.6327L5.41323 11.8063ZM33.2671 12.6583C32.7475 13.0805 32.8463 13.6811 33.0607 14.1545C33.3611 14.8182 33.8179 15.0836 34.3767 14.8307C34.9628 14.5654 34.9333 14.0457 34.8299 13.6108C34.8233 13.5817 34.8168 13.5533 34.8104 13.5256C34.7254 13.1576 34.6687 12.9123 34.8816 12.8159C35.0252 12.7509 35.1697 12.8117 35.2821 13.0601C35.405 13.3318 35.3667 13.5362 35.1986 13.6918L35.6466 14.2372C36.0632 13.8662 36.109 13.3685 35.8579 12.8135C35.5821 12.2042 35.1168 11.9098 34.5617 12.1611C33.9875 12.421 34.024 12.9563 34.1016 13.3654C34.1171 13.4478 34.1372 13.5277 34.1562 13.6033C34.2228 13.8679 34.2765 14.0811 34.0742 14.1727C33.8996 14.2517 33.7458 14.139 33.6332 13.8907C33.4998 13.5957 33.534 13.3511 33.7151 13.2036L33.2671 12.6583ZM4.9168 18.4704C5.5844 18.4193 5.84524 17.8694 5.93876 17.3582C6.06984 16.6416 5.84555 16.1632 5.24214 16.0528C4.6094 15.9371 4.33762 16.3811 4.17486 16.7973C4.16372 16.825 4.15294 16.8521 4.14241 16.8786C4.00267 17.2295 3.90953 17.4634 3.67963 17.4213C3.52458 17.3929 3.44051 17.2606 3.48958 16.9924C3.54323 16.6991 3.69123 16.553 3.91797 16.5208L3.86043 15.8174C3.30674 15.885 2.98551 16.268 2.87588 16.8672C2.75553 17.5251 2.97027 18.0321 3.5695 18.1417C4.18967 18.2551 4.46451 17.7944 4.6337 17.4139C4.66793 17.3374 4.69691 17.2603 4.72435 17.1872C4.82035 16.9318 4.89769 16.726 5.11602 16.766C5.30458 16.8005 5.36687 16.9808 5.31781 17.2489C5.25955 17.5674 5.09209 17.749 4.85927 17.767L4.9168 18.4704ZM34.3483 18.5948L33.9702 16.4338L36.9074 15.9196L37.2819 18.0596L36.6274 18.1742L36.3761 16.7391L35.8726 16.8273L36.0577 17.8847L35.4703 17.9875L35.2852 16.9301L34.7481 17.0241L35.003 18.4802L34.3483 18.5948ZM36.9661 24.0905L37.3444 21.9295L36.6898 21.8149L36.435 23.2709L35.8979 23.1769L36.083 22.1195L35.4955 22.0167L35.3104 23.0741L34.8068 22.986L35.0581 21.5509L34.4035 21.4363L34.0289 23.5764L36.9661 24.0905ZM3.3915 21.8084C2.78522 22.0926 2.73597 22.6992 2.82949 23.2104C2.96056 23.927 3.3397 24.295 3.94312 24.1847C4.57587 24.0689 4.67286 23.5575 4.67771 23.1105C4.67832 23.0806 4.67882 23.0514 4.67931 23.0231C4.68576 22.6454 4.69006 22.3937 4.91998 22.3516C5.07503 22.3233 5.20049 22.4172 5.24955 22.6854C5.3032 22.9788 5.21654 23.1678 5.01586 23.2782L5.3187 23.9157C5.81259 23.6564 5.97745 23.1845 5.86783 22.5853C5.74748 21.9274 5.36717 21.5293 4.76794 21.6389C4.14777 21.7524 4.05384 22.2806 4.03029 22.6963C4.02538 22.78 4.02558 22.8624 4.02576 22.9404C4.02641 23.2133 4.02693 23.4331 3.8086 23.4731C3.62004 23.5075 3.49796 23.361 3.4489 23.0928C3.39064 22.7743 3.48298 22.5452 3.69434 22.4459L3.3915 21.8084ZM7.45995 27.2404L6.85752 27.5209L6.47267 26.6945L4.37189 27.6729L4.06976 27.0241L6.17055 26.0458L5.78571 25.2193L6.38814 24.9388L7.45995 27.2404ZM35.9403 27.1489C35.726 27.6222 35.3399 28.0929 34.6798 27.9811L34.794 27.2846C35.0243 27.3233 35.2307 27.1877 35.3641 26.8927C35.4765 26.6443 35.4598 26.4543 35.285 26.3752C35.0829 26.2837 34.9581 26.4648 34.8031 26.6893C34.7589 26.7537 34.7122 26.8214 34.6604 26.8874C34.4043 27.2157 34.0263 27.5964 33.4519 27.3363C32.8969 27.0851 32.8111 26.5413 33.0868 25.932C33.3381 25.3771 33.7424 25.083 34.296 25.1513L34.1817 25.8479C33.954 25.8241 33.7751 25.9302 33.6521 26.2018C33.5397 26.4502 33.5893 26.599 33.7329 26.6639C33.9458 26.7604 34.0928 26.5559 34.3132 26.2491C34.3297 26.226 34.3468 26.2024 34.3643 26.1782C34.6229 25.8136 34.9939 25.4486 35.5798 25.7137C36.1387 25.9668 36.2407 26.4852 35.9403 27.1489ZM6.9131 31.4856L7.45876 32.1343L7.88071 30.8888C8.21811 31.0782 8.57845 31.0367 8.89142 30.7734C9.36414 30.3759 9.38164 29.7879 8.89905 29.2141L8.16967 28.3469L5.88758 30.2663L6.34824 30.814L7.10133 30.1806L7.21101 30.311L7.30699 30.4251L6.9131 31.4856ZM33.8437 30.5615L34.3726 29.8991L33.0684 29.7301C33.1878 29.3621 33.0763 29.0168 32.7568 28.7617C32.2739 28.3764 31.6939 28.4748 31.2262 29.0608L30.5193 29.9464L32.8498 31.8067L33.2963 31.2474L32.5272 30.6335L32.6335 30.5004L32.7265 30.3837L33.8437 30.5615ZM32.0811 30.2774L31.4719 29.7911L31.7589 29.4315C31.9315 29.215 32.1331 29.2015 32.3263 29.3557C32.5227 29.5124 32.5356 29.708 32.3707 29.9144L32.0811 30.2774ZM7.53819 29.8131L8.13479 29.3113L8.43093 29.6634C8.60916 29.8753 8.5828 30.0757 8.39371 30.2346C8.20137 30.3965 8.00707 30.3706 7.83707 30.1684L7.53819 29.8131ZM31.3147 33.286L29.5588 34.6011L27.7711 32.2144L29.5101 30.912L29.9085 31.4439L28.7424 32.3172L29.0487 32.7264L29.908 32.0828L30.2655 32.5603L29.4063 33.2037L29.7332 33.6401L30.9164 32.754L31.3147 33.286ZM10.7173 34.7785L8.93707 33.4964L10.6798 31.0766L12.4427 32.3462L12.0543 32.8855L10.8721 32.0341L10.5734 32.4489L11.4445 33.0762L11.0959 33.5602L10.2249 32.9328L9.90617 33.3753L11.1057 34.2391L10.7173 34.7785ZM26.8215 35.9963L26.7141 32.8316L25.9933 33.117L26.0868 34.6148C26.1212 35.1877 26.1385 35.4282 26.1393 35.4417L26.1274 35.4464C26.1187 35.4361 25.9668 35.2488 25.5909 34.7974L24.6426 33.6518L23.886 33.9512L25.9739 36.3319L26.8215 35.9963ZM14.6465 36.027L14.6405 36.5524L15.3584 36.8218L15.3251 33.6244L14.5633 33.3386L12.4388 35.7265L13.1448 35.9913L13.4859 35.5915L14.6465 36.027ZM14.6561 35.3345L13.9342 35.0636L14.3432 34.58C14.5177 34.3816 14.6459 34.2341 14.6514 34.2315L14.6633 34.2361C14.6648 34.2393 14.6647 34.3083 14.6645 34.418C14.6645 34.4962 14.6643 34.5951 14.6647 34.7052L14.6561 35.3345ZM20.3757 37.4453L19.6615 37.3992L19.7085 36.6723C19.7541 35.9667 19.7852 35.6186 19.7855 35.6144L19.7769 35.6137C19.7724 35.6177 19.6106 35.8763 19.4496 36.122L19.1267 36.6262L18.7271 36.6003L18.4712 36.0672C18.3395 35.794 18.2165 35.5172 18.2126 35.5126L18.1998 35.5118C18.1995 35.5161 18.1855 35.8652 18.1399 36.5708L18.0929 37.2978L17.3787 37.2517L17.5711 34.2759L18.3277 34.3249L18.9899 35.7038L19.0027 35.7046L19.8411 34.4227L20.5681 34.4696L20.3757 37.4453Z" fill="#F3F3F3"/>
</g>
<defs>
<clipPath id="clip0_12_62">
<rect width="40" height="40" fill="white"/>
</clipPath>
</defs>
</svg>
