<svg width="442" height="145" viewBox="0 0 442 145" fill="none" xmlns="http://www.w3.org/2000/svg">
<path d="M79.6642 108.397H83.9692L90.3281 125.83L96.687 108.397H100.992L92.4148 130.842H88.2742L79.6642 108.397Z" fill="#F3F3F3"/>
<path d="M150.482 130.842V108.397H165.418V112.028H154.524V117.713H163.972V121.525H154.524V127.211H165.418V130.842L150.482 130.842Z" fill="#F3F3F3"/>
<path d="M215.334 130.842V108.397H223.944C226.573 108.397 228.616 109.018 230.073 110.262C231.53 111.505 232.258 113.282 232.258 115.594C232.258 119.033 230.62 121.257 227.345 122.265L233.244 130.842H228.364L223.007 122.939H219.376V130.842H215.334ZM219.376 119.225H223.845C225.215 119.225 226.288 118.979 227.066 118.486C227.844 117.993 228.232 117.062 228.232 115.692C228.232 114.301 227.844 113.365 227.066 112.883C226.288 112.401 225.215 112.16 223.845 112.16H219.376V119.225Z" fill="#F3F3F3"/>
<path d="M280.904 114.657C280.904 112.499 281.665 110.873 283.188 109.777C284.711 108.682 286.617 108.134 288.906 108.134C290.922 108.134 292.932 108.649 294.936 109.678V113.606C293.206 112.466 291.354 111.897 289.383 111.897C288.145 111.897 287.096 112.11 286.236 112.538C285.376 112.965 284.946 113.638 284.946 114.559C284.946 115.303 285.338 115.887 286.121 116.309C286.904 116.73 287.852 117.086 288.964 117.377C290.075 117.667 291.193 118.031 292.316 118.469C293.438 118.907 294.391 119.666 295.175 120.745C295.958 121.824 296.349 123.218 296.349 124.927C296.349 126.745 295.599 128.229 294.098 129.38C292.598 130.53 290.768 131.105 288.61 131.105C285.762 131.105 283.292 130.47 281.2 129.199V125.091C283.128 126.526 285.286 127.243 287.674 127.243C290.763 127.243 292.307 126.384 292.307 124.664C292.307 123.886 292.028 123.24 291.469 122.725C290.911 122.21 290.204 121.829 289.35 121.583C288.495 121.336 287.581 121.046 286.606 120.712C285.631 120.378 284.716 120.014 283.862 119.619C283.007 119.225 282.301 118.609 281.742 117.771C281.183 116.933 280.904 115.895 280.904 114.657Z" fill="#F3F3F3"/>
<path d="M345.4 130.842V108.397H360.336V112.028H349.442V117.713H358.89V121.525H349.442V127.211H360.336V130.842L345.4 130.842Z" fill="#F3F3F3"/>
<path d="M30.49 35.866C30.49 31.2718 35.0842 26.6777 41.9755 26.6777C52.3124 26.6777 57.2511 32.8798 57.2511 32.8798L69.5406 26.6777C69.5406 26.6777 61.5008 12.8951 41.9755 12.8951C28.193 12.8951 16.7075 23.232 16.7075 35.866C16.7075 65.7282 58.0551 51.9457 58.0551 69.1738C58.0551 74.9165 52.3124 79.5107 44.2726 79.5107C32.7871 79.5107 26.6998 72.16 26.6998 72.16L14.4104 78.3622C14.4104 78.3622 23.5988 93.2933 44.2726 93.2933C58.0551 93.2933 71.8376 84.1049 71.8376 69.1738C71.8376 38.1631 30.49 51.9457 30.49 35.866Z" fill="#F3F3F3"/>
<path d="M135.008 14.0437H77.5803L84.4716 27.8262H99.4027V92.1447H113.185V27.8262H128.116L135.008 14.0437Z" fill="#F3F3F3"/>
<path d="M203.92 42.7573C203.92 26.9074 191.057 14.0437 175.207 14.0437H146.493V92.1447H160.276V71.4709H171.646L186.807 92.1447H203.92L186.922 68.9442C196.914 64.4648 203.92 54.4725 203.92 42.7573ZM160.276 27.8262H175.207C183.476 27.8262 190.138 34.4878 190.138 42.7573C190.138 51.0268 183.476 57.6884 175.207 57.6884H160.276V27.8262Z" fill="#F3F3F3"/>
<path d="M223.445 87.5506V55.3913H257.902V50.7971H223.445V18.6379H262.496L264.793 14.0437H218.851V92.1447H264.793L262.496 87.5506L223.445 87.5506Z" fill="#F3F3F3"/>
<path d="M337.955 92.1447H342.894L309.586 12.8951L276.279 92.1447H281.217L289.027 73.768H330.145L337.955 92.1447ZM290.98 69.1738L309.586 24.7252L328.193 69.1738H290.98Z" fill="#F3F3F3"/>
<path d="M392.282 82.6118L358.974 12.8951V92.1447H363.568V33.2244L392.282 93.2933L420.995 33.2244V92.1447H425.589V12.8951L392.282 82.6118Z" fill="#F3F3F3"/>
</svg>
